<?xml version="1.0" encoding="utf-8"?>
<!-- Generator: Adobe Illustrator 23.1.1, SVG Export Plug-In . SVG Version: 6.00 Build 0)  -->
<svg version="1.1" id="svg2985" xmlns="http://www.w3.org/2000/svg" xmlns:xlink="http://www.w3.org/1999/xlink" x="0px" y="0px"
	 viewBox="0 0 1000 1200" style="enable-background:new 0 0 1000 1200;" xml:space="preserve">
<style type="text/css">
	.st0{fill-rule:evenodd;clip-rule:evenodd;fill:#65B33A;stroke:#FFFFFF;stroke-miterlimit:10;}
	.st1{fill-rule:evenodd;clip-rule:evenodd;fill:#DC005F;stroke:#FFFFFF;stroke-miterlimit:10;}
	.st2{fill-rule:evenodd;clip-rule:evenodd;fill:#EC671A;stroke:#FFFFFF;stroke-miterlimit:10;}
	.st3{fill-rule:evenodd;clip-rule:evenodd;fill:#71246E;stroke:#FFFFFF;stroke-miterlimit:10;}
	.st4{fill-rule:evenodd;clip-rule:evenodd;fill:#009A9B;stroke:#FFFFFF;stroke-miterlimit:10;}
</style>
<title>MAPS</title>
<g id="england">
	<path id="somerset" class="st0" d="M374.9,1016.6c15.9-3.8-0.9,8.2,27.7,8.2c6.4-10.2,15.6,4.4,37.3-26.6
		c1.4-10.4,29.9,24,27.2-32.1c6.1,1.2,6.7,5.3,11.7-34.9c-8.2-1.8-4.7-15-5.4-28.7c-7.5-6-24.5,10.8-31.4-5.3
		c-11,13.4-33.3-53.1-66.4,55c14.8-12.2-25.2,2.5-46.4,0.1c-7.7-19.7-84.9-3.1-40.2,20.5c35.6,6.1-13,20.4,39.3,11.7
		C331.4,1003.2,370.7,996.4,374.9,1016.6z"/>
	<path id="gloucestershire" class="st0" d="M427,862.5c21.8-22.7,30.8-34,45.6-44.5c-4.9,12-107.4,86.3-1.6,85.9
		c9.4-3.5-3.3-12.3,0-16.3c9.8-4.2,2.6-5.8,9.6-21.2c15.6,2.6,6.7,6.7,15.7-11.2c15.1-14.1,35.2,10.7,37.8-9.2
		c5.9,14.5,7.9,3.2,21.3,4c-18.1-15.2,8.9-44.5-2-57.9c-7.8-11.2,17-6.9-5.8-20.2c-8.2,1.6,11.2-25.3-0.7-18.3
		c6.5-6.8-28.3-3.7-11.4,9.2c2.1,10.4-9.6-6.6-5.8,5.7c-7.5,0,12,23.9-3.2,11.4c-1.3-5-11.3-19.4-14.1-2.3c-6.8-14.9-6,13-10.9,8.5
		c-2.5-7.2,9.7-26.2-8.1-0.9c-5.8,1.3,7.7-15.6-5.8-8.7c5.4,18.8-4.8,1.8-9.6,11.6c16.6,4.3,1.5,0.6-10.2,8
		c-11-11.2,5.5-10.2-12.8-13.9c-17.1-5.4,4,18.7-3.7,25.2C449.6,815.9,412.3,804.3,427,862.5z"/>
	<path id="bedfordshire" class="st1" d="M711.4,711.7c-2.2,6.4-11.3-4.3-20.4,17.8c-10.3-17.6-16.4,18.5-3.4,26.4
		c4.4,4.8-7.8,0.2-7,41c-9.3,2.5,40.1,36.9,16.1,8.9c9.3-1.2,38.1,24.3,17-10.5c-3.2,1.2,9.7-21,16.4-9c-3.7,5.8,26.8-36.1,10.1-35
		c-8.3-0.4-12-8.9-11.8-19.9C717.4,733.4,707,728.2,711.4,711.7z M707.2,720.5c0.9-0.1-1.5,9.6-2.5,5.6
		C700.6,725.5,702.3,722.8,707.2,720.5L707.2,720.5z"/>
	<path id="berkshire" class="st0" d="M669.2,919.7c4.2-5.5,45.8-33.2,15-32c-14.3-0.3,7-30.5-23.1-11.7
		c-20.3-13.1,11,30.2-30.7,12.2c-24.3-5.9,14.5-25.5-27.9-35.7c14.1,4.3,2.6-28.5-8.4-22.9c-5.3,15.9-0.1,12.8-38.2,19.7
		c-12.5-1.1-3.3-1.7-3.3,23.6c0.6-2.8,22.9,14.5,17,42.7c4,0.4-11.1,14.9-1.1,9.2C560.2,914,632.6,906.3,669.2,919.7z"/>
	<path id="buckinghamshire" class="st0" d="M652.8,875.5c45.9-10.2,0.8-4,46.5,18.3c5.6-4.7,15-44.7-26.7-74.8
		c-8.3-14.1,33.7,11.7,22.3,2.9c10.6,0.6-33.8-21.7-5.9-60.9c2.6-4.6-9-6.4-5.8-11.1c3.4-12.8-29-10.2-29.6,23.4
		c-4.3,8.5-5,2.8-11.4-6.9c6.4,1.4-33.5,4-18,14.3c1.8-12,11,45.7,0.6,35.4c-9.6-3.9-3.5,23.4,19.9,16.7c11.7-0.6-13.2,0.6,8.1,7.9
		C670.7,881.8,630.1,836.4,652.8,875.5z"/>
	<path id="cambridgeshire" class="st0" d="M814.8,763.8c-2.8-5.3-2.5-14.2,3.3-19.6c33.2-17.2-31.1-16.5-6.3-24.6
		c21.2,18.5-1.8-30.8-6.4-45c-8.8-4-22.8,2.2-18-24.5c-3.7-2.7-17.5-15.8-5.3-23.1c-12.9-3.2-18.2,8.7-25.8,22.7
		c-4.4-24.3-14.9,5.4-24.5,13.9c3.9,14.5,29.9,7.6,31.6,30.4c15,25.2-32.7,24.1-18.5,38.6c-5.3-1.1-15.1,8.2,3.9,4.7
		c6.7,12.6-34.9,3.9-12.1,13.2c26.5-2.3-27.2,42.8,56.3,9.3C801.3,754.7,808.7,776.5,814.8,763.8z"/>
	<path id="cheshire" class="st0" d="M461.6,579.9c-4.2-18.1,14.2-8.4,30.4-38.1c22.4,8.1,22.2-21.1,10.7-48.8
		c1.9-15.5,45.4-11.4,20.3-25.1c-4.8,9.5-16.4-0.5-20.2,7.8c-8.1,6.3-4.1,15-20.2,20.3c-3.7,6.4-10.8-16.8-30.1-2
		c-24,2.2-53.1,53.7-74-5.5c-47.2,14.6,23.9,42,12.7,56.7c-15.3,3.1,8,9.7,7.1,11.9c2.8,6.2,0.2,18.7,11.3,24.5
		C438.7,575.6,431.6,600.7,461.6,579.9z"/>
	<path id="cornwall" class="st0" d="M190.7,1001.6c-30.5-4.6,22.2,25.4-63.9,72.4c-14.5,3.3,0.1,13.4-45.3,58.9
		c-17,20.8-55.8,0.2-60.1,41.1c15.5,22.8,21.7-24.6,38.2-6.9c33.7-2.4,7.3,56.4,48.5,12.9c-2-18.2-20.2,1.7,1.2-19.9
		c-2.9,2.7,2.8-17,3.1-11.3c6.2,26.3-1.5-2.1,32.1-5.1c8.8-10.5-11.8-26.7,34.1-17.6c18.3-3.2,4.9-15.4,44.5-0.7
		c6.6,2.3-7.9-22.7,3-36c-14.4-1.9-8.4-30.2-29.4-33c-7.5-0.3-26.1-12.6,6.3-8.8c1.6-13.2-3.8-8-10.6-17.8
		C192.4,1027.2,199.8,1015.6,190.7,1001.6z"/>
	<path id="cumberland" class="st0" d="M380.6,170.1c5.9,17.7-31.3-3.6-27.4,19.2c-16.2-2.6-19,30.9-34.8,52.6
		c5.6,10-14.7,24.1-2.5,31.7c10.1,0.8,25.3,75.4,40.3,56.3c6.8-27.5,3.8-48.6,29.1-61.2c-7-18.2,8.6,0.6,27.1-27.1
		c12.7-10.5,20.5,3.1,29.9-7.2c-6.8,0.3,53.2-7.4,13.4-34.3c-5.4-1.2-10.6,19-19.1-0.6c-1.1-17.9,2-31.7,11-49.4
		c-25.4,4.6-8.5-43.1-51.4,3.1C393.2,157.6,383.5,164.7,380.6,170.1z"/>
	<path id="derbyshire" class="st1" d="M606.4,515.2c-36.8-23.8-30.6,18.3-76.5-37.3c-39,2.3-18.5,21.9-19.9,57.3
		c9.9-3.4,26.5,13,25.3,30.7c15.2,24.2-41.1,23.1,23,47.2c5.3,4.2-21.3,16.9-10.2,26.1c17.5,0.6,29.2-28.6,53.5-36.3
		c1.6-5.6-8.1-20.8-10.2-34.3c1.9-7.1-0.8-18.4,4.2-25.8C602.1,553,616.7,514,606.4,515.2z"/>
	<path id="devon" class="st0" d="M374.9,1016.6c5.3-7.5-18.5-12.2-52.4-31.6c-17.3-12.1,11.9,31.8-48.3-27.4
		c31.8-17.6,8.1-18.4-37.4-12.4c-30.7-1.7,12,60.6-51,37.5c-1.7-0.2-1.5,1.7-5,19.2c19.5-2.2,6.9,11.7,22.1,45.7
		c3.9,8.3-31.4-13-12.5,7.4c22.5,0.5,14.5,15,36.3,36c-11.1-1-3.4,46.9,29.8,41.7c30.6,26.6,24.1,28.9,56.9-13.4
		c11.4-13.8-7.9,4.4-4.4-16.5c21.3-4.5-8.5,3.3,14.5-28.8C340.8,1050.5,419.6,1065.1,374.9,1016.6z"/>
	<path id="dorset" class="st0" d="M525.3,1050.3c1.2-24,23-40.8-11.6-56.4c-14.7,4.6-7.9,20-33.7-17.8c-20.1-7.3-8.9,16.9-19.8,21.4
		c-16.1,8.9-9.4-17.4-34.1,16.7c0.4,0.3-15.3,9.3-40.3,10.7c6.5-6.9-17.1-13.6-8.6-4.5c3,9.6,12.8,8.6,12.4,28
		c1.5-7.3,31.4,4.5,42.7,14c9.9,1,22.5,28.1,22.9,25.2C444.8,1029.2,515.3,1113,525.3,1050.3z"/>
	<path id="durham" class="st0" d="M471.8,239.7c22.7-8.8,27.2,25.5,80.7,26.2c2.8,4.3,14.8,10.3,18.2,11.8c0.8-14.3-1.1-2.4,6.3-6
		c3-0.1,3.7,3.1,15.5-17.5c-3.7-2.2,20.4,1.2,13.2-15.6c-3.6-11.1-16.1-19.5-22.4-42.8c-5.1-7,7.6-44.4-26.3-21.5
		c-14.6,5.1-32.3-18.2-32.7,15.1c-6,22.8-7.4-0.8-23.2,9.3C487.3,204.9,449.1,215.1,471.8,239.7z"/>
	<path id="essex" class="st0" d="M768.7,880.9c16.3-5,29.1,8.3,51.9,9.6c6.6-21.9,90.2-3.1,60.1-67.1c4.7-11.9,59,8.7,43.8-40.7
		c-19,3.3-38.4-5.5-60.3,0c-7.9-5.8-5.2-21-16.5-24.6c-13,8.9-20.3-0.3-29.9,5c-14.1,11.6-0.6,3.2-20.4-2.8
		c-5.5,9.3-44.3-3.4-20.7,23.2c5.6,4-1.3,22.8,11.3,17.3C799.5,821.5,743.8,817.7,768.7,880.9z"/>
	<path id="herefordshire" class="st0" d="M374.8,788.5c9.7,21.3,19.7,4.6,35.8,20.5c7.2,19.3,23.8,6.3,44.4-3.2
		c0.4,3.6-13.1-28.1-3.4-23.5c8.4,9.3,28.2-12.6,5-19.3c2.8-0.7,19.2-5.6,4.4-9.1c-17.2,4.1-6.6,3.5-1.8-13.2
		c-18.8-12,14.3-18.3-29.3-6.4c5.7-9.7,1.9-3-1.7-17.3c-2.6-7.9-3.7,13.1-13.8-1c10.7-3.5-2.3-8.5-13.4-11
		c4.5-3.7-32.7,21.5-12.8,23.6C375.9,735.8,359.2,747,374.8,788.5z"/>
	<path id="hertfordshire" class="st0" d="M765,845c-8.2-23.2,23.1-14.8,23.5-40.5c-11.5,0.5-9.6-53.5-40.5-28.9
		c0.1-1.6-3-9.2-5.2-11.3c-9,4.2-2.4,24.9-15.7,18.2c0.1,8.8-2.8-7.6-14.1,10.6c0.7,5.4,14.2,15.9,4.7,23
		c-10.6-9.5-29.1-14.3-13.8-0.6c-17.7-0.3,6.9,19.8-26.2-0.5c-20.3-9.2,15.1,22.9,19.1,23.2c4.2,12.6-7,28.1,23.2,20.7
		C793.8,857.1,685.3,836.3,765,845z"/>
	<path id="huntingdonshire" class="st0" d="M709.4,661.1c-7.1,7,7.5,12.5,5.7,21.4c9.8,2-37.2,35.3-2.7,30.6
		c-4,2.4-4.1,19.8,15.4,19.3c1.7,4,0.8,18.1,12.5,13.3c1.3,0.8,23.5-11.2-2.3-7.6c-0.7-13.1,13.4,6.3,2.1-15.6
		C747.9,734.3,809.5,685.3,709.4,661.1z M707.2,720.5C697.3,723.4,708.1,732.3,707.2,720.5z"/>
	<path id="lancashire" class="st1" d="M503.2,472.4c-9.5-4.1,5.1-15.9-1.5-33.1c-3.3-3.4-22-16.7-2.3-29.6
		c17.8-5.4-41.8-28.4-42.9-6.4c-6.6,10-8.9-21.3-23.9-13.2c-8.9-17.5,33.4-15.4,6.9-45.9c12.1-20.4,24.3-21.3-18.3-7.5
		c-28.3-10.5,0.4,12-20.2,21.8c-14.2,17,7.8,10.8,0.6,18.6c1,11.1-0.7,3.5-22,13c3.5,28.7-13.3,34.2,16.2,39.7
		C365.4,442,363.7,548,452.5,494C465.7,474.2,482.7,521.7,503.2,472.4z M358.7,319.6c8.4,6.1,0.9,11.3-5.4,29
		c6.7,21.7,10.4,22.8,26.6-16c10.8-4.3-4.1,36.9,21.4-4.9c-2.7-12.3-2.7-26.8-9.8-18.5c1.4-5,0.3-2.2,2.1-9
		C396.4,277.6,354,282.1,358.7,319.6z"/>
	<path id="leicestershire" class="st1" d="M560.5,643.1c6.5,32.3,20.1,18.8,51.9,59.8c4.3-1.7,22-16.5,56.4-30.9
		c-12.5-11.4-7.2-21.3-11.4-39.5c1.1-4.4,19.9,0.3,17.1-9.6c-18.9-28.8-0.9-62.2-37.4-13.8c3.7,0.1-36,26-39.8-4.8
		c-3-2.2-15.8,8.9-21.6,21.9C573.5,626.1,550.7,628.4,560.5,643.1z"/>
	<path id="lincolnshire" class="st2" d="M696.6,649.7c16-9.2,55.9-4.2,60.7-5.5c3.5-10.3,67.1-33.5,3.3-49.8
		c7-24.6,48.5-35.4,36.3-68.2c-12.4-48-47.4-68.2-86.5-97.2c-8.4,10.7-36.1-9.9-43.5,6.3c-0.5,6.5-28.4,12.5-26.9,40.7
		c-2.1,10.8,22.3-9.1,19.6,46.7c-2.9,8.1,20.6-3.9,13.3,4.2c-9.9,9.9-9.8,15-3.3,36.5c-19.2,2.9-10,55.4,26.6,71.6
		C718.2,636.3,693.1,643,696.6,649.7z"/>
	<path id="middlesex" class="st3" d="M765,845c-65.6-16.9,2.5,19.5-27.4,10c-19.4,4.5-39.7-5.4-32.5,30.1c-5.8-2.4-11,36.9,24,14.6
		c-6.2-7.4,0.6-10.9,7.9-14.3c4.5-2.1-2.5,14.9,18-4.8c1.7-3.3,14.7,9.4,12.2,1.4C774,876.5,755.1,882,765,845z"/>
	<path id="norfolk" class="st2" d="M977,650.9c1.7-67.4-108.8-93.7-159.1-68.9c-1.1,31.1-23.9,21.3-40,49.6
		c5.3,13.8,6.7,27.9,14.4,40c24.2,0.4-4.5,18.4,56.9,10.9c2.1,12.8,34.1,18,70.5,13.3c15.8-11.2,7.5-17,50.4-26.1
		C963.4,666,961.1,630.5,977,650.9z M839,573.8c-0.8-0.8,13,1.9,6.6-0.9C844.5,573.8,845.1,570.6,839,573.8L839,573.8z"/>
	<path id="northamptonshire" class="st0" d="M741.5,646.1c-26.9-11.1-50,11.8-123.1,52.8c-8.5,5-1,8.2-16,17.3
		c5.5-0.1,11.1,12,1.6,16.6c2.7,24.4-25.8-6,1.5,31.1c-16.5-5.1-7.8,36.7,14.8,20c-2.5-8.8,11.3-18.1,24.1-16.6
		c-1.4,2.4,6,17.7,9.2,6c-2.1-35,16.2-7.4,27.8-47.5c8.4-6.8,9.8,15.9,14.7-7.1c10.8-3.3-0.4-10.1,6.3-16.2
		c16-10.8,13.1-20,5.7-41.1C716.9,666,739.2,671.3,741.5,646.1z"/>
	<path id="northumberland" class="st1" d="M572.7,164.9C551.1,126,565.9,47.2,522,32.9c-10.6-8.9-13.1-37.3-27.7-28.5
		C488.8,32,456.6,25.6,478,62.8c21.5,19.6-40.6,25.2-53.9,66c0.7,21.5,39.4,17.1,14.4,38.4c-6.9,6.9,3.3,9.8,0,19.3
		c-3.2,2.2-6.4,22.5,8.5,20.4c12.1-23.9,21.9,25.9,42.3-6.8c8.6,4.5,14.2-11.2,25.3-1.5c12.4,7.2,4.1-18.1,16.4-28.2
		C542.4,174.8,559.4,178.8,572.7,164.9z"/>
	<path id="nottinghamshire" class="st0" d="M637.3,472.5c-16.1,6.8,2.7,4.3-9.1,15c-5.4-12.2-7.1,7.3-21.9,27.7
		c4-2.6,4.5,1-1.6,25.9c-1.3,3.8-18.2-2.2-11.3,11.4c-0.2,35.6,2.7,116.6,67,27.6c-11.9-9.9,17-12.6,5.3-23.6
		c5.7-16-10.6-12.4,7.5-30.5C639.6,525.7,686.7,516.9,637.3,472.5z"/>
	<path id="oxfordshire" class="st0" d="M552.9,787.2c14.7,9.6-32.9,78.5,26.4,56.4c6.7-2.4,8.7,9.2,14.8-13.9
		c5-6.3,2.6,1.9,13.4,8.1c8.6,8.9-11.3,17.6-0.1,18.8c30.6-13-6.5,48.8,45.3,31.6c10.3-8.3-16.8-20.4-1-32.1
		c16.1,12.7-8.6-20.7-3.9-24.1c1.4-3.1-16.3,11.6-24.6-7.4c-13.8-15.7,11.5,0.3,6.3-12.5c-13.2-21,21-37.6-27.8-24.8
		c5.1-8.2-19.9-21.8,3.8-23.5c-6.8-4-10-26.6-16.2-0.4C569.8,746.4,576.7,808,552.9,787.2z"/>
	<path id="rutland" class="st4" d="M670.8,674.3c-0.9-7.2,12.2-1.9,33.7-38.5C672.6,617.3,638.5,629.4,670.8,674.3z"/>
	<path id="shropshire" class="st0" d="M467.9,702.1c-16.2,6.7,23.2-23.3,1-42.9c3.8,5.4,18.6-5.9,7.5-14.5
		c-14.2,1.9-5-11.6-18.2-31.1c4-7.3,9.5-9.2-10.9-12c1.7-5.1,20.9-14.5,13.2-21c-31.8,28.6-19.1-26.4-50.2,19.3
		c-6.5-11.4-36.6-19.6-45.9,10.6c-8,28.8,46.8-6.1,2.5,56.4c-1.4,23.2,16.9-12.7,16.7,8.6c0.6,10.5-26.7,2.7-28.5,20.4
		c23.4,22.6,16.8,15.9,53.1,12.2c23.5,7.2-8.3,7.2,14.9,12.4c1.9-7.3-1.4,1,26.3-3.6C442.9,703.5,476.4,710.8,467.9,702.1z"/>
	<path id="staffordshire" class="st0" d="M513,532.6c-16.1,12.3-31.1,21.1-52,38c3.2,13,1.6,12-8.8,26.3c-10.1,8.4,5.7,4,9.2,8
		c-2.2,7.4-2.8,12,2.1,20.5c13.3,7.1-2.6,6.7,2.6,16.6c9.4-3.8,24.9,20.5,2.9,17.1c20.2,11.3-9.8,42.6-2.7,42.4
		c3.3-11.3,29.7,1.2,40.1-21.9c1.6-5.3,11.6,25.6,9,8.6c4.7-5.5,7.7-17.9,16.8-28.9c13.2,12.1,10.9-3.2,25.2-12.6
		c-3,0.3,7.7-2.6-0.1-8.2c-41,3.3,36.8-27.1-24.2-35.3C512.1,601.1,565.2,567.3,513,532.6L513,532.6z M499.2,677.3
		c2.9,0.4,3.6,9-1.6,10.5C495,685.2,491.5,680.4,499.2,677.3L499.2,677.3z"/>
	<path id="suffolk" class="st0" d="M814.8,763.8c10.5-7.7,5.3-2.2,17.6,0.9c8.9-5.5,18.6-17.1,28.5,13.9
		c24.5,1.8,70.4,20.1,91.7-20.4c13,11.5,44.2-144.8,11.6-106.3c-11.4,10.8,35.8,24.1-24.7,22.1c-0.5,26.2-76.7,32.4-87.3,11.8
		c8-3.3-68.8-13.1-32.2,27.5c-0.3,1,12.5,6.2,0.1,9c-3.7,5.2-19.3-14.1-12.5,3.5C851.3,729.2,808.3,735,814.8,763.8z"/>
	<path id="surrey" class="st0" d="M669.2,919.7c25.2,37.4-26.5-2.6,0.6,42.1c4.3,16.4,33.5,9.8,69.4-5.3c-4.4-2.8,40.8,8,37-7
		c1.1-20.9-5.4-33.3-17.5-52.5c2.8-4.8,10.6-18-1.5-16c-22.6,18.3-21.3-9.4-32.8,22.4C685.8,921.2,724.8,868.5,669.2,919.7z"/>
	<path id="sussex" class="st0" d="M823.3,968.9c8.6-11.3-56.2-23-130.7,2c-10.4,2.4-46.4-14.5-42.4,58.7
		c16.6,34.4,43.9-32,147.6,6.1c13.1-3.7,72.9-35.6,79.7-43.6C871.8,971.7,852.7,988.9,823.3,968.9z"/>
	<path id="worchestershire" class="st0" d="M499.2,677.3c-10.1,1.9-0.1,20.1,2.5,2.8C501.5,678.8,500.5,677.8,499.2,677.3z
		 M506.3,679.7c3.7,1.4-16.7,22.2-33,14c-7.4,5.1,0.6,15.4-9.8,11.7c-13.3,4.5-12.4,10.9-37.2,17.4c4.3,7.9,10.7-3.8,4.4,13
		c24-3,10.2-20.2,28.4,3.8c3.7,19.9-26.5,9.5,7.9,18.9c0.4,3.6-17.7,3.3-4.6,8.8c20.3-7.6-24.1,38.3,23.1,24.6
		c-18.8-15.9,5,3.3,2.5-11.4c5.7-18.4,2.6,21.8,14.3-8.1c2.3,19.2-6.8,10.7,11.9,1c-15.3-0.6,19-7.6,9,3.7
		c18.8,14.1,3.4,1.2,6.5-8.6c-5-11.3,6.5,4.4,5.8-5.6c-10.6-1.8-1.6-10.7-14.6-8c-4,2.8-9.1-51.8,10.7-28.3
		c10.6,2.9-18-11.5-0.9-27.8C546,660.9,527,714,506.3,679.7z"/>
	<path id="warwickshire" class="st0" d="M609.9,702.1c-6.1-18.7-28.6-27.3-45.5-40.3c-1.5-4.5,8.4-28.4-12.8-11.6
		c-15.3,36.8-8-19.6-36.3,38.2c1,6.7,9.1,5.5,21-5.5c5.8,8.7-24.8,21.1-2.3,44c-16.4-21-20.1,19-13.9,26.7c9-0.5,5,11.6,18-4.7
		c10.9,4.5,16.6-2.5,6.6,21.2c1.7,5,18.8,4.6,8.2,17.2c23.8,20.5,11.8-36.7,38.4-24c-6.1-18.1,29.9-26.5,11.2-47
		C603.5,710,620.5,714.4,609.9,702.1z"/>
	<path id="westmorland" class="st0" d="M451.4,324.3c-3.8,7.1-19.6,8.4-30.1,12.4c-33.2,6.8-12.2-35.4-29.8-27.6
		c2.8-15.9,5.7-23.3-18.7-22.7c-14.3-3.9,2.3-11,12.5-17.7c-5.2-14.1,1.5-5.8,19.3-16.4c6.8-21.5,30-8.1,44.5-21.2
		c5.3-4.6,22.2-6.7,20.7,19.8c-3.3-2.4,31.5,21.1,11.7,29.3c-20.1-7.1,5.8,31.2-38.7,14.3C440.3,289.1,425.8,300,451.4,324.3z"/>
	<path id="wiltshire" class="st0" d="M577.5,918c-4.3-14.9-10.6,14.8-11.3,6.4c-2.2-9.2,4.9,3.2,3.3-8.7c2.3-6.8,0.5-32.2-18.2-46.2
		c7.6-18.7-5.9-9.6-17.2-23.5c8.1,26.9-32.5-19.1-42.5,23.5c-17.7-8.7-7.8,5.4-22.1,21.8c4.7-6,10.1,21.3-0.9,27.4
		c7.3,8.6,13.9,10.9,8.6,27.7c-9.5,5.5,2.1,17.6-3.1,21.3c-6.5-3-12.1,0.9,1.2,8c18.6,0.8,10.1,39.1,42.3,17.2
		c11.6,13.2,11.9,26.1,14.9-1.5c-1.4,2.1,9.2,13.8,3.5,2.1c24-3.2,44.7,48.1,15.6-49.2C551.2,934.6,563.1,955.7,577.5,918z"/>
	<path id="yorkshire" class="st0" d="M451.4,324.3c-16.7,31-10.6,7.5-3.9,42.8c-1-0.5-20.7,13.6-14.8,23c19.1-6.6,4,5,12.5,7.3
		c3.1-3.9,10.6,16.2,10.6,5.2c-7.7-7.8,55.2-13.6,43.6,7.1c-26,14.6,12.6,24,2.4,52.4c-8,17,15.7,6.5,27.2,9.2
		c13.3,19.3,18.7,46.1,60.5,33.6c14.6,19.6,15.4,12.3,32.7-15.6c-1.7-10.5,5.3,4.4,10.6-8.2c-10-3.5,5.4-8.3,11.6-15.1
		c-4.9-11.1,9-17.8,19.6-25.3c3.9-18.3,8.2-6.8,30.1-10c8.7-0.9,19.6-22.1,42.1,10.2c3.9-2.3,54.4,16.6,22-14.3
		c-86-102.1,18-69.2-38.6-91.3c-18.8-17.2-23.6-42.3-44.8-65.3c-25.9-9-69.9-50.6-90-1.1c-2.6,5-15.5,1-13.5,2.6
		c1,8.4,0.1,6.2-13.8,0.5c-6.8-15.5-21.9-5.1-42.4-9.6c1.9-4.8-45.7-42.1-45.6-14.8c3.6,13.2,38.3,23,2.1,37.1
		c-3.4-1.9,4.1,18.8-10.6,13.4C457.5,300.1,412.1,277.8,451.4,324.3z"/>
	<path id="kent" class="st0" d="M889.8,901.8c2.6-6.7-40-22.7-21.8,2.7C881.5,904.7,886.1,908.5,889.8,901.8z M867.3,906.3
		c18.3,8.5,112.1-27.8,81.2,3c-12.7-3.3,14,20.4-1.6,39.4c-8.1,14.1-57.4,9.4-48.4,44.1c-2.3,20.9-23.3-13.1-35-11.4
		c-4.8-5-20.8,3.3-36.4-11.3c-20.9-5.9,33.3-3.5-49.6-16.1c-3.2,4.3,2.2-41.8-6.1-29c0-15.1-22.1-29-4.6-39.7
		c8.1-12.6,29.9-0.3,47.3,5.5c11.6-5.5,69.6-27,28.2,10.2C868.3,909.2,852.3,881.6,867.3,906.3L867.3,906.3z"/>
	<path id="hampshire" class="st0" d="M640.4,1021.8c-11.7,27.1-2.2-0.9-17.8,0.9c17.6,32.9-22.1-10.1-32.4-6.4
		c33.8,20.5-23.3,29-63.5,33.6c1.8-18.5,9.6-38.9,4.3-60c2.5,10,20.9-0.9,31.9,16.2c18.2-7.8-36.4-71.8,7-67
		c6.3-9.9-6.3-14.9,17.6-25.8c-6.4,1.4,131-6.2,75.5,28.8c-8,9.8,13.6,17.4,9.7,28.5h0.1c-13.5,4.5-27.8,26.6-21.6,49.3
		C652.6,1023.3,648.2,1021.4,640.4,1021.8z M648.4,1028.5c7.4,7.9-10.4,8.3-6.8,2.6C642.8,1027.6,649.4,1020.7,648.4,1028.5
		L648.4,1028.5z M614.7,1044c26.9-3.3,16.1,25-10.3,33.1c-8.8-6.1-18.9-21.3-34.8-17.5C564,1059.5,603.7,1028.1,614.7,1044
		L614.7,1044z"/>
</g>
</svg>
